<svg version="1.1" xmlns="http://www.w3.org/2000/svg" xmlns:xlink="http://www.w3.org/1999/xlink" width="512" height="512" viewBox="-50,150.5,512,512"><g id="document" fill-opacity="0" fill="#ffffff" fill-rule="nonzero" stroke="#000000" stroke-width="0" stroke-linecap="butt" stroke-linejoin="miter" stroke-miterlimit="10" stroke-dasharray="" stroke-dashoffset="0" font-family="none" font-weight="none" font-size="none" text-anchor="none" style="mix-blend-mode: normal"><rect x="-68.35937" y="146.97266" transform="scale(0.73143,1.024)" width="700" height="500" id="Shape 1 1" vector-effect="non-scaling-stroke"/></g><g fill="none" fill-rule="nonzero" stroke="none" stroke-width="none" stroke-linecap="round" stroke-linejoin="round" stroke-miterlimit="10" stroke-dasharray="" stroke-dashoffset="0" font-family="none" font-weight="none" font-size="none" text-anchor="none" style="mix-blend-mode: normal"><g id="stage"><g id="layer1 1"><path d="M249.88669,626.23876v-126.45307l-133.00451,-133.00451h-126.87411l-1.47023,-1.47023l99.62857,-99.62858c28.14155,-28.14155 84.42464,-28.14155 112.56619,0l148.57215,148.57215c28.14155,28.14155 28.14155,84.42464 0,112.56619z" id="Path 1" fill="#bf3415" stroke="#bf3415" stroke-width="30"/><path d="M184.9268,533.612l-111.12375,-108.28829c62.54066,-148.71172 181.26525,-249.09873 317.43578,-249.09873c15.40872,0 30.59406,1.28542 45.49988,3.78082c2.55028,14.49645 3.86389,29.26404 3.86389,44.24841c0,132.71178 -103.04014,248.41872 -255.67579,309.35779z" id="Path 1" fill="#f2f0e9" stroke="#d95043" stroke-width="30"/><path d="M246.53547,333.6218c0,-18.31342 14.84596,-33.15938 33.15938,-33.15938c18.31342,0 33.15938,14.84596 33.15938,33.15938c0,18.31342 -14.84596,33.15938 -33.15938,33.15938c-18.31342,0 -33.15938,-14.84596 -33.15938,-33.15938z" id="Path 1" fill="#7d828c" stroke="#f2f0e9" stroke-width="15"/><path d="M88.53784,526.23876l-100,100" id="Path 1" fill-opacity="0" fill="#000000" stroke="#f25e3d" stroke-width="30"/><path d="M138.53784,569.21835l-50,50" id="Path 1" fill-opacity="0" fill="#000000" stroke="#f29441" stroke-width="30"/><path d="M38.53784,476.23876l-50,50" id="Path 1" fill-opacity="0" fill="#000000" stroke="#f29441" stroke-width="30"/><path d="M313.29044,187.45574c25.11346,-7.35555 51.1942,-11.23076 77.94839,-11.23076c15.40872,0 30.59406,1.28542 45.49988,3.78082c2.55028,14.49645 3.86389,29.26404 3.86389,44.24841c0,26.8916 -4.23078,53.085 -12.2477,78.26599z" id="Path 1" fill="#d95043" stroke="#d95043" stroke-width="30"/><path d="M239.69485,333.6218c0,-22.09139 17.90861,-40 40,-40c22.09139,0 40,17.90861 40,40c0,22.09139 -17.90861,40 -40,40c-22.09139,0 -40,-17.90861 -40,-40z" id="Path 1" fill="#051926" stroke="#4e4873" stroke-width="30"/></g></g></g></svg>